<svg width="512" height="512" viewBox="0 0 512 512" fill="none" xmlns="http://www.w3.org/2000/svg">
<g clip-path="url(#clip0_109_6)">
<path d="M407.898 148.709C408.572 148.703 409.246 148.696 409.94 148.689C412.157 148.67 414.373 148.666 416.59 148.664C418.138 148.658 419.686 148.651 421.234 148.644C424.474 148.632 427.714 148.628 430.955 148.629C435.099 148.63 439.242 148.602 443.386 148.568C446.581 148.546 449.777 148.542 452.973 148.543C454.5 148.54 456.027 148.531 457.555 148.516C459.694 148.496 461.833 148.502 463.972 148.514C465.188 148.511 466.403 148.508 467.655 148.506C472.839 149.272 475.907 151.759 479.312 155.625C481.823 159.158 482.125 160.959 482.123 165.259C482.125 166.381 482.127 167.504 482.129 168.66C482.126 169.903 482.123 171.146 482.12 172.427C482.122 174.396 482.122 174.396 482.123 176.404C482.125 180.06 482.121 183.715 482.116 187.37C482.112 191.308 482.113 195.245 482.114 199.182C482.114 206.008 482.111 212.834 482.106 219.659C482.098 229.528 482.095 239.397 482.094 249.266C482.092 265.276 482.085 281.287 482.075 297.297C482.066 312.853 482.059 328.408 482.055 343.964C482.055 345.401 482.055 345.401 482.054 346.868C482.053 351.675 482.052 356.482 482.05 361.29C482.04 401.193 482.022 441.097 482 481C482.574 480.979 483.149 480.958 483.741 480.937C486.369 480.853 488.996 480.801 491.625 480.75C492.529 480.716 493.432 480.683 494.363 480.648C500.135 480.564 503.432 481.11 508 485C510.978 487.909 511.907 489.415 512.566 493.559C512.555 505.322 512.555 505.322 509.688 508.875C505.256 512.379 501.311 512.146 495.904 512.14C494.646 512.144 494.646 512.144 493.362 512.149C490.527 512.157 487.692 512.159 484.856 512.161C482.813 512.165 480.769 512.171 478.726 512.176C473.091 512.19 467.456 512.198 461.821 512.204C456.993 512.21 452.165 512.22 447.336 512.231C431.428 512.264 415.519 512.285 399.611 512.304C395.47 512.309 391.33 512.314 387.19 512.319C361.495 512.35 335.8 512.376 310.105 512.393C304.152 512.397 298.198 512.401 292.244 512.405C291.504 512.406 290.765 512.406 290.003 512.407C266.015 512.423 242.027 512.461 218.039 512.512C193.384 512.565 168.728 512.597 144.073 512.605C140.592 512.606 137.111 512.607 133.63 512.608C132.944 512.608 132.259 512.609 131.553 512.609C120.521 512.614 109.488 512.639 98.4551 512.671C87.3686 512.703 76.2823 512.712 65.1957 512.701C59.1877 512.695 53.1802 512.699 47.1723 512.729C41.6748 512.756 36.1781 512.756 30.6806 512.733C28.6893 512.73 26.6979 512.737 24.7067 512.755C22.0033 512.778 19.3025 512.764 16.5992 512.741C15.8227 512.757 15.0462 512.772 14.2461 512.788C8.90574 512.687 6.20301 511.126 2.32659 507.482C-1.30989 503.42 -0.454039 497.819 -0.347661 492.66C-0.0311223 489.328 0.143424 487.744 2.1875 485.188C8.06198 480.618 13.1312 480.743 20.3125 480.875C21.2438 480.884 22.1752 480.893 23.1348 480.902C25.4234 480.926 27.7116 480.959 30 481C29.9972 480.279 29.9945 479.558 29.9916 478.815C29.9253 461.263 29.8757 443.711 29.8446 426.159C29.8291 417.67 29.808 409.182 29.7737 400.694C29.7438 393.296 29.7244 385.897 29.7177 378.498C29.7138 374.581 29.7046 370.664 29.6828 366.747C29.6624 363.058 29.6562 359.37 29.6607 355.681C29.6595 353.686 29.6433 351.69 29.6267 349.695C29.6309 348.5 29.635 347.305 29.6392 346.074C29.6365 345.04 29.6337 344.006 29.6309 342.94C30.1525 338.785 31.7976 335.53 34.375 332.25C38.5662 329.026 42.7436 328.742 47.8982 328.709C48.572 328.703 49.2459 328.696 49.9401 328.689C52.1568 328.67 54.3731 328.666 56.5898 328.664C58.1377 328.658 59.6857 328.651 61.2335 328.644C64.474 328.632 67.7143 328.628 70.9548 328.629C75.0987 328.63 79.2419 328.602 83.3857 328.568C86.5814 328.546 89.7769 328.542 92.9727 328.543C94.5001 328.54 96.0274 328.531 97.5547 328.516C99.6944 328.496 101.833 328.502 103.972 328.514C105.188 328.511 106.403 328.508 107.655 328.506C112.839 329.272 115.907 331.759 119.312 335.625C121.898 339.263 122.124 341.153 122.12 345.593C122.122 347.377 122.122 347.377 122.124 349.197C122.119 351.164 122.119 351.164 122.114 353.17C122.113 354.56 122.113 355.949 122.114 357.339C122.114 361.117 122.108 364.896 122.101 368.675C122.095 372.621 122.095 376.568 122.093 380.514C122.09 387.991 122.082 395.467 122.072 402.943C122.061 411.453 122.055 419.963 122.05 428.473C122.04 445.982 122.022 463.491 122 481C131.24 481 140.48 481 150 481C149.993 477.743 149.987 474.487 149.98 471.132C149.92 441.273 149.875 411.415 149.847 381.557C149.843 377.644 149.839 373.731 149.835 369.818C149.834 369.039 149.834 368.26 149.833 367.458C149.82 354.842 149.796 342.227 149.769 329.612C149.741 316.669 149.724 303.725 149.718 290.782C149.714 282.795 149.701 274.807 149.676 266.82C149.659 260.696 149.657 254.573 149.661 248.449C149.66 245.936 149.654 243.423 149.642 240.91C149.628 237.483 149.631 234.057 149.639 230.63C149.63 229.632 149.622 228.634 149.613 227.606C149.653 221.463 150.473 217.216 154.375 212.25C158.566 209.026 162.744 208.742 167.898 208.709C168.572 208.703 169.246 208.696 169.94 208.689C172.157 208.67 174.373 208.666 176.59 208.664C178.138 208.658 179.686 208.651 181.234 208.644C184.474 208.632 187.714 208.628 190.955 208.629C195.099 208.63 199.242 208.602 203.386 208.568C206.581 208.546 209.777 208.542 212.973 208.543C214.5 208.54 216.027 208.531 217.555 208.516C219.694 208.496 221.833 208.502 223.972 208.514C225.188 208.511 226.403 208.508 227.655 208.506C232.839 209.272 235.907 211.759 239.312 215.625C241.594 218.836 242.125 220.445 242.123 224.322C242.125 225.235 242.127 226.149 242.129 227.089C242.126 228.099 242.123 229.109 242.12 230.149C242.122 231.75 242.122 231.75 242.123 233.384C242.125 236.985 242.119 240.585 242.114 244.186C242.113 246.758 242.113 249.329 242.114 251.901C242.114 257.45 242.111 262.999 242.106 268.548C242.098 276.57 242.095 284.593 242.094 292.616C242.092 305.631 242.085 318.647 242.075 331.662C242.066 344.308 242.059 356.953 242.055 369.599C242.055 370.378 242.054 371.157 242.054 371.959C242.053 375.868 242.052 379.776 242.05 383.684C242.04 416.123 242.022 448.561 242 481C251.24 481 260.48 481 270 481C269.99 477.243 269.99 477.243 269.98 473.41C269.919 449.836 269.874 426.263 269.845 402.689C269.829 390.569 269.808 378.449 269.774 366.329C269.744 355.766 269.724 345.203 269.718 334.64C269.714 329.046 269.705 323.453 269.683 317.859C269.662 312.594 269.656 307.33 269.661 302.065C269.66 300.133 269.654 298.2 269.642 296.268C269.627 293.629 269.631 290.991 269.639 288.352C269.63 287.588 269.622 286.823 269.613 286.035C269.659 280.502 270.96 276.597 274.375 272.25C278.566 269.026 282.744 268.742 287.898 268.709C288.572 268.703 289.246 268.696 289.94 268.689C292.157 268.67 294.373 268.666 296.59 268.664C298.138 268.658 299.686 268.651 301.234 268.644C304.474 268.632 307.714 268.628 310.955 268.629C315.099 268.63 319.242 268.602 323.386 268.568C326.581 268.546 329.777 268.542 332.973 268.543C334.5 268.54 336.027 268.531 337.555 268.516C339.694 268.496 341.833 268.502 343.972 268.514C345.188 268.511 346.403 268.508 347.655 268.506C352.839 269.272 355.907 271.759 359.312 275.625C362.253 279.763 362.139 282.933 362.12 287.871C362.122 289.105 362.122 289.105 362.123 290.364C362.124 293.135 362.119 295.907 362.114 298.678C362.113 300.659 362.113 302.639 362.114 304.62C362.114 310.01 362.108 315.4 362.101 320.791C362.095 326.419 362.095 332.047 362.093 337.675C362.09 348.339 362.082 359.002 362.072 369.666C362.061 381.804 362.055 393.941 362.05 406.079C362.04 431.053 362.022 456.026 362 481C371.24 481 380.48 481 390 481C389.99 474.988 389.99 474.988 389.98 468.854C389.92 432.111 389.875 395.369 389.847 358.626C389.843 353.812 389.839 348.998 389.835 344.184C389.834 343.225 389.834 342.267 389.833 341.279C389.82 325.754 389.796 310.229 389.769 294.703C389.74 278.777 389.724 262.851 389.718 246.924C389.714 237.094 389.701 227.264 389.676 217.434C389.66 210.696 389.656 203.958 389.659 197.221C389.661 193.331 389.658 189.442 389.642 185.553C389.625 181.338 389.631 177.123 389.639 172.908C389.63 171.676 389.622 170.445 389.613 169.176C389.649 162.409 390.07 157.729 394.375 152.25C398.566 149.026 402.744 148.742 407.898 148.709ZM422 181C422 280 422 379 422 481C431.24 481 440.48 481 450 481C450 382 450 283 450 181C440.76 181 431.52 181 422 181ZM182 241C182 320.2 182 399.4 182 481C191.24 481 200.48 481 210 481C210 401.8 210 322.6 210 241C200.76 241 191.52 241 182 241ZM302 301C302 360.4 302 419.8 302 481C311.24 481 320.48 481 330 481C330 421.6 330 362.2 330 301C320.76 301 311.52 301 302 301ZM62 361C62 400.6 62 440.2 62 481C71.24 481 80.48 481 90 481C90 441.4 90 401.8 90 361C80.76 361 71.52 361 62 361Z" fill="url(#paint0_linear_109_6)"/>
<path d="M435.419 0.0605469C436.444 0.0405664 437.469 0.0205859 438.525 0C450.505 0.00761117 459.654 4.59229 468.544 12.498C477.91 22.7241 482.295 34.1458 482.068 47.8945C481.595 58.1176 478.419 67.7203 471.544 75.498C470.884 75.498 470.224 75.498 469.544 75.498C468.884 76.818 468.224 78.138 467.544 79.498C466.884 79.498 466.224 79.498 465.544 79.498C465.214 80.488 464.884 81.478 464.544 82.498C461.766 84.5592 458.651 85.9931 455.544 87.498C454.351 88.0975 454.351 88.0975 453.134 88.709C447.276 91.2624 441.856 91.8797 435.544 91.9355C434.821 91.9456 434.098 91.9557 433.353 91.9661C428.93 91.8964 425.015 91.1751 420.755 89.9709C419.776 89.6964 418.797 89.4219 417.788 89.1391C417.047 88.9275 416.307 88.716 415.544 88.498C408.017 95.6779 400.53 102.898 393.093 110.172C389.638 113.549 386.171 116.91 382.671 120.24C379.292 123.455 375.951 126.706 372.634 129.985C371.363 131.228 370.08 132.458 368.783 133.673C364.864 137.357 361.308 140.858 358.544 145.498C358.418 150.082 359.736 153.355 361.544 157.498C361.961 160.351 362.026 163.118 361.982 165.998C361.97 167.078 361.97 167.078 361.959 168.18C361.651 178.277 358.309 187.845 351.544 195.498C350.884 195.498 350.224 195.498 349.544 195.498C348.884 196.818 348.224 198.138 347.544 199.498C346.884 199.498 346.224 199.498 345.544 199.498C345.214 200.488 344.884 201.478 344.544 202.498C341.766 204.559 338.651 205.993 335.544 207.498C334.749 207.898 333.954 208.297 333.134 208.709C323.224 213.028 310.735 213.305 300.482 209.873C295.426 207.683 290.962 204.766 286.544 201.498C285.678 200.921 284.812 200.343 283.919 199.748C276.757 192.963 271.884 184.049 269.544 174.498C269.658 173.455 269.773 172.412 269.89 171.337C270.2 167.118 270.09 164.463 268.544 160.498C263.033 155.377 255.462 152.678 248.669 149.686C246.77 148.799 244.873 147.908 242.978 147.012C234.401 142.913 234.401 142.913 225.544 139.498C225.214 140.488 224.884 141.478 224.544 142.498C221.766 144.559 218.651 145.993 215.544 147.498C214.749 147.898 213.954 148.297 213.134 148.709C207.276 151.262 201.856 151.88 195.544 151.936C194.821 151.946 194.098 151.956 193.353 151.966C188.93 151.896 185.015 151.175 180.755 149.971C179.286 149.559 179.286 149.559 177.788 149.139C177.047 148.928 176.307 148.716 175.544 148.498C168.016 155.678 160.53 162.898 153.093 170.172C149.638 173.549 146.171 176.91 142.671 180.24C139.292 183.455 135.952 186.706 132.634 189.985C131.363 191.228 130.08 192.458 128.783 193.673C124.864 197.357 121.308 200.858 118.544 205.498C118.418 210.082 119.736 213.355 121.544 217.498C121.961 220.351 122.026 223.118 121.982 225.998C121.974 226.718 121.967 227.438 121.959 228.18C121.651 238.277 118.309 247.845 111.544 255.498C110.884 255.498 110.224 255.498 109.544 255.498C108.884 256.818 108.224 258.138 107.544 259.498C106.884 259.498 106.224 259.498 105.544 259.498C105.214 260.488 104.884 261.478 104.544 262.498C101.766 264.559 98.6511 265.993 95.5442 267.498C94.7489 267.898 93.9535 268.297 93.1341 268.709C83.2238 273.028 70.7351 273.305 60.4817 269.873C55.426 267.683 50.9618 264.766 46.5442 261.498C45.678 260.921 44.8117 260.343 43.9192 259.748C35.0278 251.325 29.5086 240.014 29.0034 227.775C28.8928 215.858 31.4334 204.675 39.5442 195.498C40.2042 195.498 40.8642 195.498 41.5442 195.498C42.5342 193.518 42.5342 193.518 43.5442 191.498C44.2042 191.498 44.8642 191.498 45.5442 191.498C45.8742 190.508 46.2042 189.518 46.5442 188.498C49.3226 186.437 52.4373 185.003 55.5442 183.498C56.3396 183.098 57.1349 182.699 57.9544 182.287C63.8128 179.734 69.2326 179.116 75.5442 179.061C76.2673 179.05 76.9904 179.04 77.7354 179.03C82.158 179.1 86.0732 179.821 90.3333 181.025C91.3125 181.3 92.2917 181.574 93.3006 181.857C94.041 182.069 94.7814 182.28 95.5442 182.498C103.072 175.318 110.558 168.098 117.995 160.824C121.45 157.448 124.917 154.086 128.418 150.756C131.796 147.541 135.137 144.29 138.454 141.011C139.725 139.768 141.009 138.539 142.305 137.323C146.224 133.639 149.781 130.138 152.544 125.498C152.671 120.914 151.352 117.641 149.544 113.498C149.127 110.645 149.063 107.878 149.107 104.998C149.114 104.278 149.122 103.558 149.13 102.816C149.438 92.719 152.78 83.1515 159.544 75.498C160.204 75.498 160.864 75.498 161.544 75.498C162.534 73.518 162.534 73.518 163.544 71.498C164.204 71.498 164.864 71.498 165.544 71.498C165.874 70.508 166.204 69.518 166.544 68.498C169.323 66.4369 172.437 65.003 175.544 63.498C176.34 63.0984 177.135 62.6988 177.954 62.2871C187.865 57.9677 200.353 57.6908 210.607 61.123C215.662 63.3131 220.127 66.2298 224.544 69.498C225.41 70.0755 226.277 70.653 227.169 71.248C234.331 78.0332 239.205 86.947 241.544 96.498C241.43 97.5411 241.316 98.5842 241.198 99.6589C240.888 103.878 240.998 106.533 242.544 110.498C248.055 115.619 255.626 118.318 262.419 121.311C264.319 122.197 266.216 123.088 268.111 123.984C276.687 128.083 276.687 128.083 285.544 131.498C285.874 130.508 286.204 129.518 286.544 128.498C289.323 126.437 292.437 125.003 295.544 123.498C296.737 122.899 296.737 122.899 297.954 122.287C303.813 119.734 309.233 119.116 315.544 119.061C316.267 119.05 316.99 119.04 317.735 119.03C322.158 119.1 326.073 119.821 330.333 121.025C331.312 121.3 332.292 121.574 333.301 121.857C334.041 122.069 334.781 122.28 335.544 122.498C343.072 115.318 350.558 108.098 357.995 100.824C361.45 97.4475 364.917 94.0862 368.418 90.7563C371.796 87.5408 375.137 84.2897 378.454 81.0109C379.725 79.7681 381.009 78.5385 382.305 77.323C386.224 73.6394 389.781 70.1383 392.544 65.498C392.671 60.9139 391.352 57.6407 389.544 53.498C389.127 50.6454 389.063 47.8777 389.107 44.998C389.118 43.9181 389.118 43.9181 389.13 42.8164C389.438 32.719 392.78 23.1515 399.544 15.498C400.204 15.498 400.864 15.498 401.544 15.498C402.204 14.178 402.864 12.858 403.544 11.498C404.204 11.498 404.864 11.498 405.544 11.498C405.874 10.508 406.204 9.51805 406.544 8.49805C408.329 7.2168 408.329 7.2168 410.607 5.99805C411.34 5.59586 412.074 5.19367 412.829 4.7793C420.722 1.0546 426.709 0.000736818 435.419 0.0605469ZM425.794 35.0605C422.59 38.5315 421.867 41.8428 421.544 46.498C422.157 51.0947 423.06 52.9795 426.232 56.373C429.941 58.7526 432.157 59.4197 436.544 59.498C441.09 58.4979 444.374 56.9327 447.544 53.498C449.332 49.1265 449.667 45.4173 449.044 40.748C447.164 36.6733 445.315 34.917 441.544 32.498C435.286 30.8218 431.313 31.925 425.794 35.0605ZM185.794 95.0605C182.59 98.5315 181.867 101.843 181.544 106.498C182.157 111.095 183.06 112.98 186.232 116.373C189.941 118.753 192.157 119.42 196.544 119.498C201.09 118.498 204.374 116.933 207.544 113.498C209.332 109.126 209.667 105.417 209.044 100.748C207.164 96.6733 205.315 94.917 201.544 92.498C195.286 90.8218 191.313 91.925 185.794 95.0605ZM305.794 155.061C302.59 158.531 301.867 161.843 301.544 166.498C302.157 171.095 303.06 172.98 306.232 176.373C309.941 178.753 312.157 179.42 316.544 179.498C321.09 178.498 324.374 176.933 327.544 173.498C329.332 169.126 329.667 165.417 329.044 160.748C327.164 156.673 325.315 154.917 321.544 152.498C315.286 150.822 311.313 151.925 305.794 155.061ZM65.7942 215.061C62.5903 218.531 61.8672 221.843 61.5442 226.498C62.1571 231.095 63.0595 232.98 66.2317 236.373C69.941 238.753 72.1572 239.42 76.5442 239.498C81.0901 238.498 84.3738 236.933 87.5442 233.498C89.3318 229.126 89.6668 225.417 89.0442 220.748C87.1636 216.673 85.3149 214.917 81.5442 212.498C75.2863 210.822 71.3128 211.925 65.7942 215.061Z" fill="url(#paint1_linear_109_6)"/>
</g>
<defs>
<linearGradient id="paint0_linear_109_6" x1="256.028" y1="148.503" x2="256.028" y2="512.788" gradientUnits="userSpaceOnUse">
<stop offset="0.365385" stop-color="#7E9DE2"/>
<stop offset="1" stop-color="#2563EB"/>
</linearGradient>
<linearGradient id="paint1_linear_109_6" x1="255.538" y1="0" x2="255.538" y2="272.223" gradientUnits="userSpaceOnUse">
<stop offset="0.365385" stop-color="#7E9DE2"/>
<stop offset="1" stop-color="#2563EB"/>
</linearGradient>
<clipPath id="clip0_109_6">
<rect width="512" height="512" fill="white"/>
</clipPath>
</defs>
</svg>
